{"title":"The Odd Couple 1968 (Multisubs) BRRip x264 AC3-PsiX","uid":8570118,"size":1550509607,"categoryP":"video","categoryS":"movies_dvdr","magnet":"?xt=urn:btih:d210621724697e20e8565a7870e3741231aaec0d&amp;dn=The+Odd+Couple+1968+%28Multisubs%29+BRRip+x264+AC3-PsiX&amp;tr=udp%3A%2F%2Ftracker.openbittorrent.com%3A80&amp;tr=udp%3A%2F%2Fopen.demonii.com%3A1337&amp;tr=udp%3A%2F%2Ftracker.coppersurfer.tk%3A6969&amp;tr=udp%3A%2F%2Fexodus.desync.com%3A6969","seeders":4,"leechers":0,"uploader":"sakhslitsa","files":9,"time":1371132675,"description":"The.Odd.Couple.1968.BRRip.x264.AC3-PsiX.mkv\n\nFormat : Matroska\nFormat version : Version 2\nFile size : 1.44 GiB\nDuration : 1h 45mn\nOverall bit rate : 1 959 Kbps\nEncoded date : UTC 2013-06-07 23:28:11\nWriting application : mkvmerge v6.1.0 ('Old Devil') built on Mar 2 2013 14:32:37\nWriting library : libebml v1.3.0 + libmatroska v1.4.0\n\nVideo\nID : 1\nFormat : AVC\nFormat/Info : Advanced Video Codec\nFormat profile : &lt;a class=&quot;__cf_email__&quot; href=&quot;/cdn-cgi/l/email-protection&quot; data-cfemail=&quot;256d4c424d6569110b14&quot;&gt;[email&amp;#160;protected]&lt;/a&gt;&lt;script cf-hash='f9e31' type=&quot;text/javascript&quot;&gt;\n/* &lt;![CDATA[ */!function(){try{var t=&quot;currentScript&quot;in document?document.currentScript:function(){for(var t=document.getElementsByTagName(&quot;script&quot;),e=t.length;e--;)if(t[e].getAttribute(&quot;cf-hash&quot;))return t[e]}();if(t&amp;&amp;t.previousSibling){var e,r,n,i,c=t.previousSibling,a=c.getAttribute(&quot;data-cfemail&quot;);if(a){for(e=&quot;&quot;,r=parseInt(a.substr(0,2),16),n=2;a.length-n;n+=2)i=parseInt(a.substr(n,2),16)^r,e+=String.fromCharCode(i);e=document.createTextNode(e),c.parentNode.replaceChild(e,c)}}}catch(u){}}();/* ]]&gt; */&lt;/script&gt;\nFormat settings, CABAC : Yes\nFormat settings, ReFrames : 8 frames\nCodec ID : V_MPEG4/ISO/AVC\nDuration : 1h 45mn\nBit rate : 1 509 Kbps\nWidth : 720 pixels\nHeight : 304 pixels\nDisplay aspect ratio : 2.35:1\nFrame rate mode : Constant\nFrame rate : 23.976 fps\nColor space : YUV\nChroma subsampling : 4:2:0\nBit depth : 8 bits\nScan type : Progressive\nBits/(Pixel*Frame) : 0.288\nStream size : 1.08 GiB (75%)\nWriting library : x264 core 130 r2273 b3065e6\n\n\nAudio\nID : 2\nFormat : AC-3\nFormat/Info : Audio Coding 3\nMode extension : CM (complete main)\nFormat settings, Endianness : Big\nCodec ID : A_AC3\nDuration : 1h 45mn\nBit rate mode : Constant\nBit rate : 448 Kbps\nChannel(s) : 6 channels\nChannel positions : Front: L C R, Side: L R, LFE\nSampling rate : 48.0 KHz\nBit depth : 16 bits\nCompression mode : Lossy\nStream size : 338 MiB (23%)\nLanguage : English\nDefault : Yes\nForced : No\n\n\n\n\n\n\nEncoded............: PsiX\nSource.............: 1080p-AMIABLE\nSubs..........srt...English, Romanian, German, Greek, Spanish, Bulgarian, Turkish","torrent":{"xt":"urn:btih:d210621724697e20e8565a7870e3741231aaec0d","amp;dn":"The+Odd+Couple+1968+%28Multisubs%29+BRRip+x264+AC3-PsiX","amp;tr":["udp%3A%2F%2Ftracker.openbittorrent.com%3A80","udp%3A%2F%2Fopen.demonii.com%3A1337","udp%3A%2F%2Ftracker.coppersurfer.tk%3A6969","udp%3A%2F%2Fexodus.desync.com%3A6969"],"infoHash":"d210621724697e20e8565a7870e3741231aaec0d","infoHashBuffer":{"type":"Buffer","data":[210,16,98,23,36,105,126,32,232,86,90,120,112,227,116,18,49,170,236,13]},"announce":[],"urlList":[]}}